<?xml version="1.0" encoding="UTF-8"?>
<svg width="30px" height="30px" viewBox="0 0 30 30" version="1.1" xmlns="http://www.w3.org/2000/svg" xmlns:xlink="http://www.w3.org/1999/xlink">
    <title>icon/soical/ig</title>
    <defs>
        <linearGradient x1="-6.15678267%" y1="0%" x2="88.1689453%" y2="86.9580078%" id="linearGradient-1">
            <stop stop-color="#605CD7" offset="0%"></stop>
            <stop stop-color="#A844A1" offset="20.6020542%"></stop>
            <stop stop-color="#D7243E" offset="48.2290246%"></stop>
            <stop stop-color="#F9A326" offset="80.2189372%"></stop>
            <stop stop-color="#F9DD26" offset="100%"></stop>
        </linearGradient>
    </defs>
    <g id="icon/soical/ig" stroke="none" stroke-width="1" fill="none" fill-rule="evenodd">
        <g id="Group-3" transform="translate(1.000000, 1.000000)">
            <circle id="Oval" fill="#FFFFFF" cx="14" cy="14" r="13"></circle>
            <path d="M14,0 C21.7333333,0 28,6.26666667 28,14 C28,21.7333333 21.7333333,28 14,28 C6.26666667,28 0,21.7333333 0,14 C0,6.26666667 6.26666667,0 14,0 Z M15.5122987,5.60073173 L12.4877013,5.60073173 C11.5010133,5.60261333 11.1813333,5.60933333 10.5333333,5.63333333 C9.83333333,5.63333333 9.16666667,5.76666667 8.5,6 C7.36666667,6.43333333 6.46666667,7.33333333 6.03333333,8.46666667 C5.76666667,9.1 5.63333333,9.8 5.63333333,10.5 C5.57733333,11.256 5.56837333,11.56512 5.56693973,13.007904 L5.56682453,14.2330773 C5.56933333,16.2890133 5.60133333,16.5693333 5.63333333,17.4333333 C5.63333333,18.1333333 5.76666667,18.8333333 6,19.4666667 C6.43333333,20.6 7.33333333,21.5 8.46666667,21.9333333 C9.1,22.2 9.8,22.3333333 10.5,22.3333333 C10.68,22.3466667 10.8346667,22.3573333 10.9853333,22.3658667 L11.1655787,22.3751168 C11.5276907,22.3917056 11.9159147,22.3972352 12.6251627,22.3990784 L13.700256,22.3999957 L13.700256,22.3999957 L13.9666667,22.4 C16.2666667,22.4 16.5333333,22.3666667 17.4333333,22.3333333 C18.1333333,22.3333333 18.8333333,22.2 19.4666667,21.9666667 C20.6,21.5333333 21.5,20.6333333 21.9333333,19.5 C22.2,18.8666667 22.3333333,18.1666667 22.3333333,17.4666667 C22.3466667,17.2866667 22.3573333,17.132 22.3658667,16.9813333 L22.3751168,16.801088 C22.3917056,16.438976 22.3972352,16.050752 22.3990784,15.341504 L22.3999957,14.2664107 L22.3999957,14.2664107 L22.4,14 C22.4,11.7 22.3666667,11.4333333 22.3333333,10.5333333 C22.3333333,9.83333333 22.2,9.13333333 21.9666667,8.5 C21.5,7.36666667 20.6333333,6.46666667 19.5,6.03333333 C18.8666667,5.76666667 18.1666667,5.63333333 17.4666667,5.63333333 C16.8186667,5.60933333 16.4989867,5.60261333 15.5122987,5.60073173 Z M15.4834346,7.10082706 C16.4094329,7.10283565 16.7291667,7.10972222 17.3666667,7.13333333 C17.9,7.16666667 18.4333333,7.26666667 18.9333333,7.43333333 C19.6666667,7.73333333 20.2666667,8.3 20.5333333,9.03333333 C20.7333333,9.53333333 20.8333333,10.0666667 20.8333333,10.6 C20.8583333,11.275 20.8645833,11.59375 20.8661458,12.653125 L20.8661458,15.346875 C20.8645833,16.40625 20.8583333,16.725 20.8333333,17.4 C20.8,17.9333333 20.7333333,18.4666667 20.5333333,18.9666667 C20.4,19.3333333 20.1666667,19.6666667 19.9,19.9333333 C19.6333333,20.2333333 19.3,20.4333333 18.9333333,20.5666667 C18.4333333,20.7666667 17.9,20.8666667 17.3666667,20.8666667 C16.6166667,20.9222222 16.3064815,20.9314815 14.9314815,20.9330247 L13.697555,20.9331621 C11.7100116,20.9305556 11.4291667,20.8986111 10.5666667,20.8666667 C10.0333333,20.8333333 9.5,20.7666667 9,20.5666667 C8.26666667,20.2666667 7.66666667,19.7 7.4,18.9666667 C7.2,18.4666667 7.1,17.9333333 7.1,17.4 C7.07777778,16.8 7.07037037,16.4814815 7.06790123,15.6740741 L7.0671875,15.346875 C7.06710069,15.2880208 7.06702836,15.2268808 7.06696807,15.1632668 L7.06696807,12.8367332 C7.06702836,12.7731192 7.06710069,12.7119792 7.0671875,12.653125 L7.06790123,12.3259259 C7.07037037,11.5185185 7.07777778,11.2 7.1,10.6 C7.13333333,10.0666667 7.2,9.53333333 7.4,9.03333333 C7.7,8.3 8.26666667,7.7 9,7.43333333 C9.5,7.23333333 10.0333333,7.13333333 10.5666667,7.13333333 C11.2041667,7.10972222 11.5239005,7.10283565 12.4498987,7.10082706 Z M14,9.7 C11.6333333,9.7 9.7,11.6333333 9.7,14 C9.7,16.3666667 11.6333333,18.3 14,18.3 C16.3666667,18.3 18.3,16.3666667 18.3,14 C18.3,11.6333333 16.3666667,9.7 14,9.7 Z M14,11.2 C15.5333333,11.2 16.8,12.4666667 16.8,14 L16.8,14 L16.7948382,14.1692222 C16.705807,15.625423 15.4765432,16.8 14,16.8 C12.4666667,16.8 11.2,15.5333333 11.2,14 C11.2,12.4666667 12.4666667,11.2 14,11.2 Z M18.4666667,8.53333333 L18.3473882,8.53985666 C17.8403061,8.59591837 17.4666667,9.00714286 17.4666667,9.53333333 C17.4666667,10.1 17.9,10.5333333 18.4666667,10.5333333 C19.0333333,10.5333333 19.4666667,10.1 19.4666667,9.53333333 C19.4666667,8.96666667 19.0333333,8.53333333 18.4666667,8.53333333 L18.4666667,8.53333333 Z" id="Combined-Shape" fill="url(#linearGradient-1)" fill-rule="nonzero"></path>
        </g>
    </g>
</svg>