<?xml version="1.0" encoding="UTF-8"?>
<svg width="30px" height="30px" viewBox="0 0 30 30" version="1.1" xmlns="http://www.w3.org/2000/svg" xmlns:xlink="http://www.w3.org/1999/xlink">
    <title>icon/notice</title>
    <g id="icon/notice" stroke="none" stroke-width="1" fill="none" fill-rule="evenodd">
        <g id="Group" transform="translate(3.000000, 3.000000)">
            <path d="M12,24 C5.38324528,24 0,18.6167547 0,12 C0,5.38324528 5.38324528,0 12,0 C18.6167547,0 24,5.38324528 24,12 C24,18.6167547 18.6167547,24 12,24" id="Fill-1" fill="#000000"></path>
            <path d="M13.5849057,18.1132075 C13.5849057,17.2378868 12.8753208,16.5283019 12,16.5283019 C11.1246792,16.5283019 10.4150943,17.2378868 10.4150943,18.1132075 C10.4150943,18.9885283 11.1246792,19.6981132 12,19.6981132 C12.8753208,19.6981132 13.5849057,18.9885283 13.5849057,18.1132075" id="Fill-3" fill="#FFFFFF"></path>
        </g>
        <path d="M15,8 C15.9996217,8 16.8099751,8.81035347 16.8099751,9.80997512 C16.8099751,9.87012017 16.8069772,9.93022783 16.8009926,9.99007438 L16.0995037,17.0049628 C16.0430166,17.5698344 15.567689,18 15,18 C14.432311,18 13.9569834,17.5698344 13.9004963,17.0049628 L13.1990074,9.99007438 C13.0995414,8.99541365 13.82524,8.10844863 14.8199007,8.00898256 C14.8797473,8.00299791 14.939855,8 15,8 Z" id="Rectangle" fill="#FFFFFF"></path>
    </g>
</svg>