<?xml version="1.0" encoding="UTF-8"?>
<svg width="70px" height="70px" viewBox="0 0 70 70" version="1.1" xmlns="http://www.w3.org/2000/svg" xmlns:xlink="http://www.w3.org/1999/xlink">
    <title>logo/b</title>
    <defs>
        <polygon id="path-1" points="0 0.124657343 59.032951 0.124657343 59.032951 59.1608392 0 59.1608392"></polygon>
    </defs>
    <g id="logo/b" stroke="none" stroke-width="1" fill="none" fill-rule="evenodd">
        <g id="Group-10" transform="translate(5.000000, 5.000000)">
            <g id="Group-3" transform="translate(0.000000, 0.294965)">
                <mask id="mask-2" fill="white">
                    <use xlink:href="#path-1"></use>
                </mask>
                <g id="Clip-2"></g>
                <path d="M57.9856783,17.2108112 L41.9484755,1.17444755 C41.2721119,0.497664336 40.3721119,0.124657343 39.4146294,0.124657343 C38.4575664,0.124657343 37.5571469,0.497244755 36.8807832,1.17444755 L23.431972,14.6228392 L1.0481958,37.007035 C-0.349426573,38.4042378 -0.349426573,40.6779441 1.0481958,42.0751469 L17.0841399,58.1115105 C17.7613427,58.7882937 18.6609231,59.1608811 19.6184056,59.1608811 C20.5754685,59.1608811 21.4754685,58.7882937 22.1526713,58.1115105 L42.2165874,38.0475944 L57.9856783,22.2789231 C59.382042,20.8813007 59.382042,18.608014 57.9856783,17.2108112" id="Fill-1" fill="#FFFFFF" mask="url(#mask-2)"></path>
            </g>
            <path d="M42.748028,23.2821818 C41.8400559,24.1888951 40.6476084,24.6412028 39.4627133,24.6412028 C38.2765594,24.6412028 37.0866294,24.1888951 36.1778182,23.2821818 C35.2723636,22.3758881 34.8158601,21.1842797 34.8158601,19.9981259 C34.8158601,18.809035 35.2723636,17.6174266 36.1773986,16.7136503 C37.0862098,15.8073566 38.2748811,15.3504336 39.4631329,15.3504336 C40.6476084,15.3504336 41.8400559,15.8035804 42.748028,16.7136503 C43.6518042,17.6174266 44.1095664,18.8094545 44.1095664,19.9981259 C44.1095664,21.1834406 43.6522238,22.3758881 42.748028,23.2821818 M56.850965,18.6458182 L40.815021,2.60945455 C40.0417343,1.83658741 38.788028,1.83658741 38.0151608,2.60945455 L20.6764196,19.9481958 L39.5122238,38.7844196 L56.850965,21.4456783 C57.6242517,20.6723916 57.6242517,19.4191049 56.850965,18.6458182" id="Fill-4" fill="#E1002A"></path>
            <path d="M23.1322657,36.6735105 C24.038979,35.7642797 25.2293287,35.3119717 26.4159021,35.3119717 C27.6045734,35.3115524 28.7949231,35.7642797 29.699958,36.6735105 C30.6104476,37.578965 31.0644336,38.7667972 31.0640143,39.9584056 C31.0640143,41.144979 30.6104476,42.3353287 29.699958,43.2395245 C28.7949231,44.1428811 27.6045734,44.5981259 26.4159021,44.5998042 C25.2280699,44.5998042 24.038979,44.1428811 23.1322657,43.2395245 C22.2247133,42.3323916 21.7707273,41.142042 21.7707273,39.9584056 C21.7707273,38.7697343 22.2247133,37.5793846 23.1322657,36.6735105 L23.1322657,36.6735105 Z M16.0698881,43.0549091 C15.1602378,43.957007 13.9703077,44.4105734 12.7837343,44.4105734 C11.5942238,44.4101538 10.4051329,43.9574266 9.498,43.0549091 C8.59002797,42.1498741 8.1393986,40.9586853 8.1393986,39.7721119 C8.1393986,38.5834406 8.59212587,37.3930909 9.49841958,36.483021 C10.4051329,35.5784056 11.5942238,35.1260979 12.7837343,35.1256783 C13.9703077,35.1260979 15.1623357,35.5784056 16.0694685,36.4838601 C16.9757622,37.3930909 17.4272308,38.5834406 17.4263928,39.770014 C17.4263928,40.9574266 16.9757622,42.1507133 16.0698881,43.0549091 L16.0698881,43.0549091 Z M2.1821958,38.4361678 C1.40890909,39.2094545 1.40890909,40.4627413 2.1821958,41.236028 L18.2185594,57.2723916 C18.604993,57.6588252 19.1118462,57.8518322 19.6182797,57.8518322 C20.1251329,57.8518322 20.6324056,57.6588252 21.0184196,57.2723916 L38.3491888,39.942042 L19.5125455,21.1053986 L2.1821958,38.4361678 Z" id="Fill-6" fill="#0077B4"></path>
            <path d="M25.0243058,57.5510568 L25.2461607,57.5510568 C25.4745407,57.5510568 25.5489273,57.4842578 25.5489273,57.3486758 C25.5489273,57.2309509 25.4915061,57.164152 25.2781339,57.164152 L25.0243058,57.164152 L25.0243058,57.5510568 Z M25.0243058,58.2441785 L24.8363817,58.2441785 L24.8363817,57.0080673 L25.3035819,57.0080673 C25.5939508,57.0080673 25.7368515,57.1178557 25.7368515,57.3599192 C25.7368515,57.5828028 25.5998235,57.6780409 25.4177719,57.7018504 L25.7649096,58.2441785 L25.5593676,58.2441785 L25.2350679,57.7071414 L25.0243058,57.7071414 L25.0243058,58.2441785 Z M25.2494232,56.7276441 C24.759385,56.7276441 24.3802741,57.1112419 24.3802741,57.6231467 C24.3802741,58.1456335 24.759385,58.5239404 25.2494232,58.5239404 C25.7342414,58.5239404 26.1126997,58.1456335 26.1126997,57.6231467 C26.1126997,57.1112419 25.7342414,56.7276441 25.2494232,56.7276441 L25.2494232,56.7276441 Z M25.2494232,56.5543636 C25.8249409,56.5543636 26.3182418,57.0080673 26.3182418,57.6231467 C26.3182418,58.2441785 25.8249409,58.6972208 25.2494232,58.6972208 C24.668033,58.6972208 24.1753846,58.2441785 24.1753846,57.6231467 C24.1753846,57.0080673 24.668033,56.5543636 25.2494232,56.5543636 L25.2494232,56.5543636 Z" id="Fill-8" fill="#FFFFFF"></path>
        </g>
    </g>
</svg>