<?xml version="1.0" encoding="UTF-8"?>
<svg width="270px" height="72px" viewBox="0 0 270 72" version="1.1" xmlns="http://www.w3.org/2000/svg" xmlns:xlink="http://www.w3.org/1999/xlink">
    <title>logo/a</title>
    <defs>
        <polygon id="path-1" points="0 0.454084507 55.0844178 0.454084507 55.0844178 55.539662 0 55.539662"></polygon>
    </defs>
    <g id="logo/a" stroke="none" stroke-width="1" fill="none" fill-rule="evenodd">
        <g id="Group-30" transform="translate(5.000000, 8.000000)">
            <g id="Group-3" transform="translate(0.000000, 0.156488)">
                <mask id="mask-2" fill="white">
                    <use xlink:href="#path-1"></use>
                </mask>
                <g id="Clip-2"></g>
                <path d="M54.1094178,16.3968451 L39.1459906,1.42914554 C38.5143005,0.79684507 37.6769296,0.453840376 36.7834085,0.453840376 C35.8904977,0.453840376 35.0482441,0.79684507 34.416554,1.42914554 L21.8663662,13.984216 L0.979089202,34.8672207 C-0.326403756,36.1721033 -0.326403756,38.2917746 0.979089202,39.5966573 L15.9419061,54.5600845 C16.5742066,55.1966573 17.4115775,55.539662 18.3093709,55.539662 C19.2016714,55.539662 20.0445352,55.1966573 20.6713427,54.5600845 L39.393784,35.8376432 L54.1094178,21.1220094 C55.4094178,19.8213991 55.4094178,17.6974554 54.1094178,16.3968451" id="Fill-1" fill="#FFFFFF" mask="url(#mask-2)"></path>
            </g>
            <path d="M39.8909577,21.9410704 C39.0438216,22.7930892 37.9311925,23.2093333 36.827108,23.2093333 C35.7199718,23.2093333 34.611615,22.7930892 33.7602066,21.9410704 C32.9173427,21.0988169 32.487061,19.9813052 32.487061,18.8729484 C32.487061,17.7652019 32.9173427,16.6574554 33.7602066,15.8103192 C34.611615,14.9680657 35.7199718,14.5420563 36.827108,14.5420563 C37.9311925,14.5420563 39.0438216,14.9631831 39.8909577,15.8103192 C40.7380939,16.6574554 41.1592207,17.7700845 41.1592207,18.8729484 C41.1592207,19.9813052 40.7380939,21.0988169 39.8909577,21.9410704 M53.0502535,17.6144507 L38.0868263,2.65102347 C37.3635869,1.92778404 36.1960282,1.92778404 35.4721784,2.65102347 L19.2960282,18.827784 L36.873493,36.4046385 L53.0502535,20.2284883 C53.7728826,19.5101315 53.7728826,18.3376901 53.0502535,17.6144507" id="Fill-4" fill="#E1002A"></path>
            <path d="M21.5849437,34.4385258 C22.4369624,33.586507 23.5447089,33.1702629 24.6530657,33.1702629 C25.7608122,33.1702629 26.8685587,33.586507 27.7156948,34.4385258 C28.562831,35.285662 28.98823,36.3891362 28.98823,37.5017653 C28.98823,38.6095117 28.562831,39.7178685 27.7156948,40.5650047 C26.8685587,41.4072582 25.7608122,41.828385 24.6530657,41.8326573 C23.5447089,41.8326573 22.4369624,41.4072582 21.589216,40.5650047 C20.7426901,39.7178685 20.3166808,38.6095117 20.3166808,37.5017653 C20.3166808,36.3934085 20.7426901,35.285662 21.5849437,34.4385258 L21.5849437,34.4385258 Z M15.0007183,40.3953333 C14.1493099,41.2327042 13.0366808,41.6593239 11.9283239,41.6593239 C10.8205775,41.6593239 9.71222066,41.2327042 8.86569484,40.3953333 C8.01855869,39.5481972 7.59743192,38.4361784 7.59743192,37.3272113 C7.59743192,36.2194648 8.01855869,35.1068357 8.86569484,34.2603099 C9.71222066,33.4131737 10.8205775,32.9957089 11.9283239,32.9957089 C13.0366808,32.9957089 14.1493099,33.4131737 15.0007183,34.2603099 C15.8429718,35.1068357 16.2647089,36.2194648 16.2647089,37.3272113 C16.2647089,38.4361784 15.8429718,39.5481972 15.0007183,40.3953333 L15.0007183,40.3953333 Z M2.03428638,36.0821408 C1.31531925,36.8059906 1.31531925,37.9686667 2.03428638,38.6967887 L17.0013756,53.6596056 C17.3584178,54.0166479 17.8344742,54.1997465 18.3062582,54.1997465 C18.7829249,54.1997465 19.2547089,54.0166479 19.6117512,53.6596056 L35.7879014,37.488338 L18.2104366,19.9102629 L2.03428638,36.0821408 Z" id="Fill-6" fill="#0077B4"></path>
            <path d="M74.6734038,46.2070047 L70.2918545,46.2070047 L70.2918545,31.8484131 L74.7149061,31.8484131 C79.2789437,31.8484131 82.0083333,34.5222629 82.0083333,39.0045164 C82.0083333,42.5847042 79.4858451,46.2070047 74.6734038,46.2070047 M74.6734038,23.8268638 L61.8485681,23.8268638 C61.4274413,23.8268638 61.0838263,24.1747512 61.0838263,24.6001502 L61.0838263,53.4595399 C61.0838263,53.8806667 61.4274413,54.2242817 61.8485681,54.2242817 L74.7149061,54.2242817 C84.8201174,54.2242817 91.3530751,48.248554 91.3530751,39.0045164 C91.3530751,29.7836714 84.8011972,23.8268638 74.6734038,23.8268638" id="Fill-8" fill="#FFFFFF"></path>
            <path d="M150.166723,31.6667183 C146.627427,31.6667183 143.751559,33.612446 142.465596,35.5447465 C141.522028,32.9716009 139.38893,31.6667183 136.133437,31.6667183 C132.520901,31.6667183 129.792122,33.4934319 128.839399,34.7208028 L128.839399,32.9807559 C128.839399,32.5547465 128.496394,32.2160141 128.069775,32.2160141 L121.403765,32.2160141 C120.978366,32.2160141 120.639634,32.5547465 120.639634,32.9807559 L120.639634,53.4609437 C120.639634,53.8820704 120.978366,54.2256854 121.403765,54.2256854 L128.069775,54.2256854 C128.496394,54.2256854 128.839399,53.8820704 128.839399,53.4609437 L128.839399,40.6452629 L128.839399,40.636108 C129.320338,40.0819296 130.323108,38.9149812 132.163249,38.9149812 C133.784282,38.9149812 134.67292,39.7846995 134.67292,41.373385 L134.67292,53.4609437 C134.67292,53.8820704 135.016535,54.2256854 135.437052,54.2256854 L142.107944,54.2256854 C142.529681,54.2256854 142.878178,53.8820704 142.878178,53.4609437 L142.878178,40.6452629 C143.358507,40.0819296 144.365549,38.9149812 146.247803,38.9149812 C147.840761,38.9149812 148.751981,39.8072817 148.751981,41.373385 L148.751981,53.4609437 C148.751981,53.8820704 149.094986,54.2256854 149.517333,54.2256854 L156.192498,54.2256854 C156.608742,54.2256854 156.956629,53.8820704 156.956629,53.4609437 L156.956629,38.2735258 C156.956629,34.0201455 154.544,31.6667183 150.166723,31.6667183" id="Fill-10" fill="#FFFFFF"></path>
            <path d="M168.727549,32.2165023 L162.056047,32.2165023 C161.630648,32.2165023 161.287643,32.559507 161.287643,32.9806338 L161.287643,53.4614319 C161.287643,53.8776761 161.630648,54.2261737 162.056047,54.2261737 L168.727549,54.2261737 C169.148676,54.2261737 169.497174,53.8776761 169.497174,53.4614319 L169.497174,32.9806338 C169.497174,32.559507 169.148676,32.2165023 168.727549,32.2165023" id="Fill-12" fill="#FFFFFF"></path>
            <path d="M165.593023,21.4135634 C163.057108,21.4135634 160.987484,23.4783052 160.987484,26.014831 C160.987484,28.5562394 163.057108,30.6215915 165.593023,30.6215915 C168.129549,30.6215915 170.194291,28.5562394 170.194291,26.014831 C170.194291,23.4783052 168.129549,21.4135634 165.593023,21.4135634" id="Fill-14" fill="#FFFFFF"></path>
            <path d="M189.724869,31.6667183 C185.471488,31.6667183 183.163836,33.5807089 182.165338,34.7208028 L182.165338,32.9807559 C182.165338,32.5547465 181.817451,32.2160141 181.400596,32.2160141 L174.729704,32.2160141 C174.308577,32.2160141 173.965573,32.5547465 173.965573,32.9807559 L173.965573,53.4609437 C173.965573,53.8820704 174.308577,54.2256854 174.729704,54.2256854 L181.400596,54.2256854 C181.817451,54.2256854 182.165338,53.8820704 182.165338,53.4609437 L182.165338,40.6452629 C182.696934,40.0410376 183.694822,38.9149812 185.668624,38.9149812 C187.793178,38.9149812 188.868577,39.9677981 188.868577,42.0551221 L188.868577,53.4609437 C188.868577,53.8820704 189.20731,54.2256854 189.629047,54.2256854 L196.299329,54.2256854 C196.721066,54.2256854 197.068953,53.8820704 197.068953,53.4609437 L197.068953,38.5982207 C197.068953,34.2581737 194.326136,31.6667183 189.724869,31.6667183" id="Fill-16" fill="#FFFFFF"></path>
            <path d="M105.565371,46.9854178 C103.37246,46.9854178 101.604948,45.2130235 101.604948,43.0158404 C101.604948,40.8272019 103.37246,39.0596901 105.565371,39.0596901 C107.754009,39.0596901 109.530676,40.8272019 109.530676,43.0158404 C109.530676,45.2130235 107.754009,46.9854178 105.565371,46.9854178 M105.565371,31.5691268 C99.1508169,31.5691268 93.9447136,36.77523 93.9447136,43.1806291 C93.9447136,49.604338 99.1508169,54.8012864 105.565371,54.8012864 C111.980535,54.8012864 117.181756,49.604338 117.181756,43.1806291 C117.181756,36.77523 111.980535,31.5691268 105.565371,31.5691268" id="Fill-18" fill="#FFFFFF"></path>
            <path d="M212.108549,47.0211831 C209.919911,47.0211831 208.148127,45.2396338 208.148127,43.0516056 C208.148127,40.8629671 209.919911,39.0954554 212.108549,39.0954554 C214.30207,39.0954554 216.073854,40.8629671 216.073854,43.0516056 C216.073854,45.2396338 214.30207,47.0211831 212.108549,47.0211831 M212.108549,31.604892 C205.693385,31.604892 200.492775,36.8061127 200.492775,43.2163944 C200.492775,49.6401033 205.693385,54.8370516 212.108549,54.8370516 C218.523714,54.8370516 223.734089,49.6401033 223.734089,43.2163944 C223.734089,36.8061127 218.523714,31.604892 212.108549,31.604892" id="Fill-20" fill="#FFFFFF"></path>
            <path d="M231.129441,25.1113005 L231.129441,25.0978732 C231.129441,25.0929906 231.124559,25.0929906 231.124559,25.088108 C231.120286,25.0697981 231.120286,25.0478263 231.116014,25.0289061 L231.101977,25.038061 C230.594183,22.7487183 228.107704,21.0916761 225.652962,21.5945869 C223.171977,22.1121455 221.542399,24.4197981 222.022728,26.7457606 C222.420662,28.6548685 224.138127,29.9237418 226.107047,30.0513005 C226.014887,30.8618169 225.300803,31.5948216 224.714887,31.9243991 C224.326108,32.1483897 224.554981,32.5609718 224.554981,32.5609718 L225.067047,33.3159484 C225.214136,33.5728967 225.438127,33.7010657 225.699958,33.5954789 C230.786437,31.5173099 231.650662,27.1851972 231.129441,25.1113005" id="Fill-22" fill="#FFFFFF"></path>
            <path d="M238.037385,38.7626432 C238.014192,37.9429718 239.08593,37.5767746 240.418277,37.5767746 C243.074427,37.5767746 244.585601,38.3366338 246.27438,39.4492629 C246.452596,39.5731596 246.668653,39.6048967 246.874333,39.5591221 C247.080014,39.5090751 247.25884,39.3809061 247.359545,39.1929249 L249.612268,35.2733944 C249.818559,34.9114695 249.698934,34.453723 249.341892,34.2431596 C247.487714,33.1354131 244.782127,31.7115164 240.069779,31.7115164 C233.284756,31.7115164 229.649028,34.9071972 230.258136,39.4999202 C231.324991,47.5721268 243.875178,44.8018451 243.678042,47.5580892 C243.63715,48.1989343 242.524521,48.6707183 240.606258,48.6707183 C238.124662,48.6707183 235.300061,47.4299202 233.518512,46.3221737 C233.344568,46.2165869 233.124239,46.1842394 232.927714,46.2348967 C232.726305,46.2849437 232.552362,46.4179953 232.446775,46.6010939 L229.846164,50.9368685 C229.649028,51.2853662 229.754615,51.7290751 230.089685,51.9536761 C232.584099,53.6387934 236.613488,54.7697324 240.115554,54.7697324 C246.915836,54.7697324 250.830484,51.8480892 250.830484,47.0545681 C250.830484,38.2041925 238.092925,40.9463991 238.037385,38.7626432" id="Fill-24" fill="#FFFFFF"></path>
            <path d="M254.87208,34.7892817 L255.686869,34.7892817 C256.520577,34.7892817 256.794615,34.5463709 256.794615,34.056277 C256.794615,33.6259953 256.584662,33.3836948 255.801,33.3836948 L254.87208,33.3836948 L254.87208,34.7892817 Z M254.87208,37.2934601 L254.18546,37.2934601 L254.18546,32.8203615 L255.898042,32.8203615 C256.960014,32.8203615 257.481235,33.2189061 257.481235,34.0977793 C257.481235,34.8991408 256.983207,35.2470282 256.314286,35.3294225 L257.592315,37.2934601 L256.836728,37.2934601 L255.645977,35.3477324 L254.87208,35.3477324 L254.87208,37.2934601 Z M255.700906,31.8133192 C253.901047,31.8133192 252.509498,33.1963239 252.509498,35.0505023 C252.509498,36.9406901 253.901047,38.3059953 255.700906,38.3059953 C257.4733,38.3059953 258.86485,36.9406901 258.86485,35.0505023 C258.86485,33.1963239 257.4733,31.8133192 255.700906,31.8133192 L255.700906,31.8133192 Z M255.700906,31.1810188 C257.80715,31.1810188 259.614944,32.8203615 259.614944,35.0505023 C259.614944,37.2934601 257.80715,38.9328028 255.700906,38.9328028 C253.566587,38.9328028 251.758183,37.2934601 251.758183,35.0505023 C251.758183,32.8203615 253.566587,31.1810188 255.700906,31.1810188 L255.700906,31.1810188 Z" id="Fill-26" fill="#FFFFFF"></path>
            <path d="M26.187493,53.9609859 C25.2982441,53.9609859 24.5731737,53.2371362 24.5731737,52.3478873 C24.5731737,51.4513146 25.2982441,50.7360094 26.187493,50.7360094 C27.0907793,50.7360094 27.8024225,51.4513146 27.8024225,52.3478873 C27.8024225,53.2371362 27.0907793,53.9609859 26.187493,53.9609859 L26.187493,53.9609859 Z M26.187493,50.9795305 C25.4264131,50.9795305 24.8203568,51.5770423 24.8203568,52.3478873 C24.8203568,53.1010329 25.4264131,53.7180751 26.187493,53.7180751 C26.9467418,53.7180751 27.5546291,53.1010329 27.5546291,52.3478873 C27.5546291,51.5770423 26.9467418,50.9795305 26.187493,50.9795305 L26.187493,50.9795305 Z M26.6299812,53.2768075 L26.1453803,52.5480751 L25.831061,52.5480751 L25.831061,53.2768075 L25.5735023,53.2768075 L25.5735023,51.4281221 L26.3278685,51.4281221 C26.6360845,51.4281221 26.9253803,51.6484507 26.9253803,51.9877934 C26.9253803,52.4003756 26.5585728,52.5370892 26.4542066,52.5370892 L26.9467418,53.2768075 L26.6299812,53.2768075 Z M26.3278685,51.656385 L25.831061,51.656385 L25.831061,52.3106573 L26.3278685,52.3106573 C26.484723,52.3106573 26.659277,52.1788263 26.659277,51.9877934 C26.659277,51.7821127 26.484723,51.656385 26.3278685,51.656385 L26.3278685,51.656385 Z" id="Fill-28" fill="#FFFFFF"></path>
        </g>
    </g>
</svg>