<?xml version="1.0" encoding="UTF-8"?>
<svg width="30px" height="30px" viewBox="0 0 30 30" version="1.1" xmlns="http://www.w3.org/2000/svg" xmlns:xlink="http://www.w3.org/1999/xlink">
    <title>icon/soical/facebook-bl</title>
    <g id="icon/soical/facebook-bl" stroke="none" stroke-width="1" fill="none" fill-rule="evenodd">
        <g id="f_logo_RGB-Blue_1024" transform="translate(1.000000, 1.000000)">
            <g id="Group-3" fill="#1877F2">
                <path d="M28,14 C28,6.26800781 21.7319922,0 14,0 C6.26800781,0 0,6.26800781 0,14 C0,20.9878047 5.11959766,26.7796484 11.8125,27.8299219 L11.8125,18.046875 L8.2578125,18.046875 L8.2578125,14 L11.8125,14 L11.8125,10.915625 C11.8125,7.406875 13.9026016,5.46875 17.1005078,5.46875 C18.6322227,5.46875 20.234375,5.7421875 20.234375,5.7421875 L20.234375,9.1875 L18.4690078,9.1875 C16.7298633,9.1875 16.1875,10.2666758 16.1875,11.3738242 L16.1875,14 L20.0703125,14 L19.4496094,18.046875 L16.1875,18.046875 L16.1875,27.8299219 C22.8804023,26.7796484 28,20.9878047 28,14" id="Fill-1"></path>
            </g>
            <path d="M19.4496094,18.046875 L20.0703125,14 L16.1875,14 L16.1875,11.3738242 C16.1875,10.2666758 16.7298633,9.1875 18.4690078,9.1875 L20.234375,9.1875 L20.234375,5.7421875 C20.234375,5.7421875 18.6322227,5.46875 17.1005078,5.46875 C13.9026016,5.46875 11.8125,7.406875 11.8125,10.915625 L11.8125,14 L8.2578125,14 L8.2578125,18.046875 L11.8125,18.046875 L11.8125,27.8299219 C12.5252695,27.9417578 13.2558125,28 14,28 C14.7441875,28 15.4747305,27.9417578 16.1875,27.8299219 L16.1875,18.046875 L19.4496094,18.046875" id="Fill-4" fill="#FFFFFF"></path>
        </g>
    </g>
</svg>