<?xml version="1.0" encoding="UTF-8"?>
<svg width="30px" height="30px" viewBox="0 0 30 30" version="1.1" xmlns="http://www.w3.org/2000/svg" xmlns:xlink="http://www.w3.org/1999/xlink">
    <title>icon/soical/line-cl</title>
    <g id="icon/soical/line-cl" stroke="none" stroke-width="1" fill="none" fill-rule="evenodd">
        <g id="Group-14" transform="translate(0.999907, 1.000000)">
            <g id="Group-3" fill="#00B900">
                <path d="M28,14 C28,21.7319667 21.7322,28 14,28 C6.26803333,28 0,21.7319667 0,14 C0,6.26803333 6.26803333,0 14,0 C21.7322,0 28,6.26803333 28,14" id="Fill-1"></path>
            </g>
            <path d="M23.3123567,13.1594167 C23.3123567,8.99255 19.13499,5.60245 14.0000233,5.60245 C8.86575667,5.60245 4.68792333,8.99255 4.68792333,13.1594167 C4.68792333,16.8950833 8.00079,20.0236167 12.47589,20.6151167 C12.77899,20.68045 13.1917567,20.8150833 13.29629,21.0743167 C13.39009,21.30975 13.3576567,21.67865 13.32639,21.9161833 C13.32639,21.9161833 13.21719,22.5734833 13.19339,22.7134833 C13.15279,22.9489167 13.0062567,23.63445 14.0000233,23.2156167 C14.9940233,22.7967833 19.3629567,20.0576833 21.3166567,17.80905 L21.31619,17.80905 C22.66579,16.3290167 23.3123567,14.82705 23.3123567,13.1594167" id="Fill-4" fill="#FFFFFF"></path>
            <path d="M12.1080167,11.1457733 L11.4546833,11.1457733 C11.3545833,11.1457733 11.2733833,11.2269733 11.2733833,11.32684 L11.2733833,15.3845067 C11.2733833,15.4843733 11.3545833,15.56534 11.4546833,15.56534 L12.1080167,15.56534 C12.2081167,15.56534 12.2893167,15.4843733 12.2893167,15.3845067 L12.2893167,11.32684 C12.2893167,11.2269733 12.2081167,11.1457733 12.1080167,11.1457733" id="Fill-6" fill="#00B900"></path>
            <path d="M16.6040233,11.1457733 L15.95069,11.1457733 C15.85059,11.1457733 15.76939,11.2269733 15.76939,11.32684 L15.76939,13.7374067 L13.9099567,11.2262733 C13.9057567,11.21974 13.9008567,11.2139067 13.8957233,11.2080733 C13.89549,11.2076067 13.8950233,11.20714 13.8945567,11.2069067 C13.8910567,11.20294 13.8873233,11.1992067 13.8838233,11.1954733 C13.8824233,11.19454 13.88149,11.1936067 13.8803233,11.19244 C13.87729,11.18964 13.8740233,11.18684 13.8707567,11.1845067 C13.8691233,11.1831067 13.86749,11.18194 13.86609,11.1807733 C13.8628233,11.1786733 13.85979,11.17634 13.8565233,11.17424 C13.8546567,11.1730733 13.8530233,11.17214 13.8511567,11.1709733 C13.84789,11.1691067 13.8446233,11.16724 13.8413567,11.1656067 C13.83949,11.1649067 13.8376233,11.16374 13.8357567,11.1628067 C13.8322567,11.1614067 13.8287567,11.1597733 13.8252567,11.1583733 C13.8231567,11.1576733 13.8215233,11.1569733 13.8194233,11.1562733 C13.8159233,11.1551067 13.8124233,11.15394 13.80869,11.1527733 C13.80659,11.1523067 13.80449,11.15184 13.80239,11.15114 C13.79889,11.15044 13.79539,11.14974 13.79189,11.1488067 C13.7893233,11.14834 13.7867567,11.1481067 13.78419,11.1478733 C13.7811567,11.1471733 13.77789,11.14694 13.7746233,11.1467067 C13.77159,11.14624 13.7685567,11.14624 13.76529,11.1460067 C13.7629567,11.1460067 13.76109,11.1457733 13.75899,11.1457733 L13.10589,11.1457733 C13.00579,11.1457733 12.9243567,11.2269733 12.9243567,11.32684 L12.9243567,15.3845067 C12.9243567,15.4843733 13.00579,15.56534 13.10589,15.56534 L13.75899,15.56534 C13.85909,15.56534 13.9405233,15.4843733 13.9405233,15.3845067 L13.9405233,12.97464 L15.8020567,15.4888067 C15.81489,15.5070067 15.83099,15.52194 15.8482567,15.53384 C15.8489567,15.5340733 15.8496567,15.53454 15.8501233,15.53524 C15.8538567,15.53734 15.85759,15.5399067 15.86109,15.5420067 C15.8629567,15.54294 15.86459,15.5438733 15.8664567,15.5448067 C15.8692567,15.5459733 15.8720567,15.5476067 15.87509,15.5490067 C15.8781233,15.5501733 15.88069,15.5515733 15.8839567,15.55274 C15.8858233,15.55344 15.8874567,15.55414 15.8893233,15.55484 C15.8935233,15.5560067 15.8977233,15.5574067 15.90169,15.5585733 L15.90449,15.5592733 C15.9189567,15.56324 15.93459,15.56534 15.95069,15.56534 L16.6040233,15.56534 C16.7043567,15.56534 16.7853233,15.4843733 16.7853233,15.3845067 L16.7853233,11.32684 C16.7853233,11.2269733 16.7043567,11.1457733 16.6040233,11.1457733" id="Fill-8" fill="#00B900"></path>
            <path d="M10.5334833,14.5493833 L8.75875,14.5493833 L8.75875,11.3268167 C8.75875,11.22695 8.67755,11.14575 8.57745,11.14575 L7.92411667,11.14575 C7.82401667,11.14575 7.74281667,11.22695 7.74281667,11.3268167 L7.74281667,15.3840167 L7.74281667,15.3844833 C7.74281667,15.4330167 7.76218333,15.47735 7.79345,15.50955 C7.79415,15.5104833 7.79485,15.51165 7.79601667,15.51235 C7.79671667,15.5132833 7.79765,15.5139833 7.79858333,15.5149167 C7.83125,15.5461833 7.87511667,15.5653167 7.92388333,15.5653167 L7.92411667,15.5653167 L10.5334833,15.5653167 C10.6335833,15.5653167 10.71455,15.48435 10.71455,15.3840167 L10.71455,14.7306833 C10.71455,14.6308167 10.6335833,14.5493833 10.5334833,14.5493833" id="Fill-10" fill="#00B900"></path>
            <path d="M20.2111233,12.1618233 C20.3112233,12.1618233 20.39219,12.0806233 20.39219,11.9805233 L20.39219,11.32719 C20.39219,11.22709 20.3112233,11.14589 20.2111233,11.14589 L17.6017567,11.14589 L17.60129,11.14589 C17.55229,11.14589 17.5084233,11.1652567 17.4755233,11.19699 C17.4748233,11.19769 17.4743567,11.1981567 17.4736567,11.1988567 C17.47249,11.2000233 17.4715567,11.2009567 17.4706233,11.2021233 C17.43959,11.2345567 17.4202233,11.2784233 17.4202233,11.3269567 L17.4202233,11.32719 L17.4202233,15.3841567 L17.4202233,15.3846233 C17.4202233,15.4331567 17.4398233,15.4772567 17.47109,15.50969 C17.47179,15.5106233 17.4727233,15.5115567 17.4736567,15.51249 C17.4743567,15.51319 17.47529,15.5141233 17.4762233,15.5148233 C17.5086567,15.54609 17.5527567,15.5654567 17.60129,15.5654567 L17.6017567,15.5654567 L20.2111233,15.5654567 C20.3112233,15.5654567 20.39219,15.4842567 20.39219,15.3841567 L20.39219,14.7308233 C20.39219,14.6307233 20.3112233,14.54929 20.2111233,14.54929 L18.43639,14.54929 L18.43639,13.8635233 L20.2111233,13.8635233 C20.3112233,13.8635233 20.39219,13.7823233 20.39219,13.6822233 L20.39219,13.0291233 C20.39219,12.92879 20.3112233,12.84759 20.2111233,12.84759 L18.43639,12.84759 L18.43639,12.1618233 L20.2111233,12.1618233 Z" id="Fill-12" fill="#00B900"></path>
        </g>
    </g>
</svg>